<svg width="184" height="50" viewBox="0 0 184 50" fill="none" xmlns="http://www.w3.org/2000/svg">
<path d="M62.9002 38.1025V11.5025H80.3802V15.6445H68.0302V22.5985H79.2402V26.5885H68.0302V33.9605H80.3802V38.1025H62.9002ZM88.0568 38.1025L81.8628 19.2545H87.2588L91.7428 34.5305H91.9328L96.4168 19.2545H101.775L95.5808 38.1025H88.0568ZM112.357 38.5585C110.432 38.5585 108.722 38.1532 107.227 37.3425C105.758 36.5319 104.605 35.3919 103.769 33.9225C102.933 32.4532 102.515 30.7685 102.515 28.8685C102.515 26.8925 102.921 25.1572 103.731 23.6625C104.567 22.1425 105.72 20.9519 107.189 20.0905C108.684 19.2292 110.419 18.7985 112.395 18.7985C114.27 18.7985 115.917 19.2039 117.335 20.0145C118.754 20.8252 119.869 21.9399 120.679 23.3585C121.49 24.7519 121.895 26.3352 121.895 28.1085C121.895 28.3619 121.895 28.6532 121.895 28.9825C121.895 29.2865 121.87 29.6032 121.819 29.9325H106.163V26.7785H116.689C116.613 25.5879 116.17 24.6379 115.359 23.9285C114.574 23.2192 113.586 22.8645 112.395 22.8645C111.509 22.8645 110.698 23.0672 109.963 23.4725C109.229 23.8525 108.646 24.4479 108.215 25.2585C107.785 26.0439 107.569 27.0445 107.569 28.2605V29.3625C107.569 30.4012 107.772 31.3005 108.177 32.0605C108.583 32.7952 109.14 33.3652 109.849 33.7705C110.584 34.1759 111.407 34.3785 112.319 34.3785C113.257 34.3785 114.042 34.1759 114.675 33.7705C115.309 33.3399 115.79 32.7952 116.119 32.1365H121.363C120.983 33.3272 120.375 34.4165 119.539 35.4045C118.703 36.3672 117.677 37.1399 116.461 37.7225C115.245 38.2799 113.877 38.5585 112.357 38.5585ZM124.386 38.1025V19.2545H128.794L129.212 22.3325H129.326C129.959 21.2179 130.795 20.3565 131.834 19.7485C132.873 19.1152 134.177 18.7985 135.748 18.7985C137.319 18.7985 138.649 19.1405 139.738 19.8245C140.827 20.4832 141.651 21.4585 142.208 22.7505C142.791 24.0425 143.082 25.6385 143.082 27.5385V38.1025H137.99V27.9945C137.99 26.4239 137.661 25.2205 137.002 24.3845C136.369 23.5485 135.368 23.1305 134 23.1305C133.139 23.1305 132.366 23.3459 131.682 23.7765C130.998 24.1819 130.466 24.7772 130.086 25.5625C129.706 26.3225 129.516 27.2599 129.516 28.3745V38.1025H124.386ZM154.757 38.1025C153.414 38.1025 152.236 37.8999 151.223 37.4945C150.235 37.0639 149.462 36.3672 148.905 35.4045C148.348 34.4165 148.069 33.0739 148.069 31.3765V23.3965H144.839V19.2545H148.069L148.639 14.1245H153.199V19.2545H158.215V23.3965H153.199V31.4525C153.199 32.3392 153.389 32.9599 153.769 33.3145C154.149 33.6692 154.795 33.8465 155.707 33.8465H158.101V38.1025H154.757Z" fill="#170F49"/>
<path d="M159.018 38.1025L167.378 24.6125L158.904 11.5025H164.832L170.608 20.5845H170.722L176.004 11.5025H181.818L173.496 24.8405L182.046 38.1025H176.118L170.342 28.8685H170.19L164.832 38.1025H159.018Z" fill="#531DC5"/>
<path d="M0.923828 21.0569C0.923828 9.63621 10.1821 0.37793 21.6028 0.37793V28.9434C21.6028 40.364 12.3445 49.6223 0.923828 49.6223V21.0569Z" fill="#4A3AFF"/>
<path d="M24.6025 11.6147C24.6025 5.40881 29.6334 0.37793 35.8393 0.37793C42.0452 0.37793 47.0761 5.4088 47.0761 11.6147V12.2635C47.0761 18.4694 42.0452 23.5002 35.8393 23.5002C29.6334 23.5002 24.6025 18.4694 24.6025 12.2635V11.6147Z" fill="#4CBFFF"/>
<path d="M24.6025 37.7368C24.6025 31.5309 29.6334 26.5 35.8393 26.5C42.0452 26.5 47.0761 31.5309 47.0761 37.7368V38.3855C47.0761 44.5914 42.0452 49.6223 35.8393 49.6223C29.6334 49.6223 24.6025 44.5914 24.6025 38.3855V37.7368Z" fill="#9328FF"/>
</svg>
